<svg width="14" height="14" viewBox="0 0 14 14" fill="none" xmlns="http://www.w3.org/2000/svg">
<rect width="14" height="14" fill="white"/>
<path d="M11.136 3.37073H9.34726V2.77805C9.34726 2.30648 9.15881 1.85423 8.82336 1.52078C8.48791 1.18733 8.03295 1 7.55856 1H6.36609C5.8917 1 5.43674 1.18733 5.10129 1.52078C4.76585 1.85423 4.5774 2.30648 4.5774 2.77805V3.37073H2.7887C2.31431 3.37073 1.85934 3.55806 1.5239 3.89151C1.18845 4.22496 1 4.67722 1 5.14878V10.4829C1 10.9545 1.18845 11.4068 1.5239 11.7402C1.85934 12.0737 2.31431 12.261 2.7887 12.261H11.136C11.6103 12.261 12.0653 12.0737 12.4008 11.7402C12.7362 11.4068 12.9247 10.9545 12.9247 10.4829V5.14878C12.9247 4.67722 12.7362 4.22496 12.4008 3.89151C12.0653 3.55806 11.6103 3.37073 11.136 3.37073ZM5.76172 2.76074C5.76172 2.60355 5.95045 2.03841 5.95045 2.03841C5.95045 2.03841 6.20796 2.03841 6.36609 2.03841H7.5304C7.68853 2.03841 7.86622 2.03841 7.86622 2.03841C7.86622 2.03841 8.11802 2.60355 8.11802 2.76074V3.35343H5.76172V2.76074ZM11.7322 10.4829C11.7322 10.6401 11.6694 10.7909 11.5576 10.902C11.4457 11.0132 11.2941 11.0756 11.136 11.0756H2.7887C2.63057 11.0756 2.47891 11.0132 2.3671 10.902C2.25528 10.7909 2.19247 10.6401 2.19247 10.4829V7.22318C2.77406 7.45249 3.37192 7.63871 3.98116 7.7803L5.17363 8.00552C5.76649 8.08575 6.364 8.12733 6.96233 8.12998C7.56065 8.12733 8.15816 8.08575 8.75102 8.00552C9.24832 7.93822 9.94349 7.7803 9.94349 7.7803C10.5527 7.63871 11.1506 7.45249 11.7322 7.22318V10.4829ZM11.7322 5.9252C11.1523 6.16849 10.5543 6.36665 9.94349 6.51788L9.52027 6.62785C9.52295 6.60176 9.52295 6.60176 9.52295 6.60176L9.52027 6.62785L8.75102 6.77274C7.56527 6.95056 6.35939 6.95056 5.17363 6.77274L3.98116 6.52974C3.3704 6.3785 2.77236 6.18035 2.19247 5.93705V5.14878C2.19247 4.99159 2.25528 4.84084 2.3671 4.72969C2.47891 4.61854 2.63057 4.5561 2.7887 4.5561H11.136C11.2941 4.5561 11.4457 4.61854 11.5576 4.72969C11.6694 4.84084 11.7322 4.99159 11.7322 5.14878V5.9252Z" fill="#7F8AA5"/>
</svg>
